<?xml version="1.0" encoding="UTF-8"?>
<!DOCTYPE svg PUBLIC "-//W3C//DTD SVG 1.1//EN" "http://www.w3.org/Graphics/SVG/1.1/DTD/svg11.dtd">
<!-- Creator: CorelDRAW -->
<svg xmlns="http://www.w3.org/2000/svg" xml:space="preserve" width="6.82666in" height="6.82666in" style="shape-rendering:geometricPrecision; text-rendering:geometricPrecision; image-rendering:optimizeQuality; fill-rule:evenodd; clip-rule:evenodd"
viewBox="0 0 6.82666 6.82666"
 xmlns:xlink="http://www.w3.org/1999/xlink">
 <defs>
  <style type="text/css">
   <![CDATA[
    .fil2 {fill:none}
    .fil9 {fill:#37474F}
    .fil11 {fill:#876153}
    .fil1 {fill:#BDBDBD}
    .fil0 {fill:#E0E0E0}
    .fil8 {fill:#ECEFF1}
    .fil3 {fill:#3E2723;fill-rule:nonzero}
    .fil10 {fill:#424242;fill-rule:nonzero}
    .fil6 {fill:#876153;fill-rule:nonzero}
    .fil7 {fill:#BF360C;fill-rule:nonzero}
    .fil4 {fill:#D49A74;fill-rule:nonzero}
    .fil5 {fill:#EBBFA1;fill-rule:nonzero}
   ]]>
  </style>
   <clipPath id="id0">
    <path d="M3.41333 -3.93701e-006c1.88513,0 3.41333,1.5282 3.41333,3.41333 0,1.88513 -1.5282,3.41333 -3.41333,3.41333 -1.88513,0 -3.41333,-1.5282 -3.41333,-3.41333 0,-1.88513 1.5282,-3.41333 3.41333,-3.41333z"/>
   </clipPath>
 </defs>
 <g id="Layer_x0020_1">
  <metadata id="CorelCorpID_0Corel-Layer"/>
  <path class="fil0" d="M3.41333 -3.93701e-006c1.88513,0 3.41333,1.5282 3.41333,3.41333 0,1.88513 -1.5282,3.41333 -3.41333,3.41333 -1.88513,0 -3.41333,-1.5282 -3.41333,-3.41333 0,-1.88513 1.5282,-3.41333 3.41333,-3.41333z"/>
  <g style="clip-path:url(#id0)">
   <g id="_637666144">
    <g>
     <polygon id="_5427099201" class="fil1" points="2.80629,1.90797 6.59256,5.69424 6.59837,5.70238 6.60414,5.71056 6.60987,5.71878 6.61556,5.72704 6.62122,5.73533 6.62684,5.74365 6.63243,5.75199 6.63798,5.76036 6.6435,5.76874 6.649,5.77714 6.65448,5.78555 6.65992,5.79397 6.66535,5.80239 6.67075,5.81081 6.67614,5.81923 6.6815,5.82764 6.68686,5.83604 6.6922,5.84442 6.69753,5.85278 6.70285,5.86113 6.70816,5.86944 6.71346,5.87774 6.71876,5.88599 6.72406,5.89421 6.72935,5.90239 6.73465,5.91052 6.73995,5.91861 6.74526,5.92665 6.75057,5.93463 6.75589,5.94255 6.76121,5.95041 6.76656,5.9582 2.98029,2.17193 2.97494,2.16414 2.96962,2.15628 2.9643,2.14835 2.95899,2.14037 2.95369,2.13234 2.94838,2.12425 2.94309,2.11611 2.93779,2.10794 2.93249,2.09972 2.92719,2.09146 2.92189,2.08317 2.91658,2.07486 2.91126,2.06651 2.90593,2.05815 2.90059,2.04976 2.89524,2.04137 2.88987,2.03296 2.88448,2.02454 2.87908,2.01612 2.87365,2.0077 2.86821,1.99928 2.86274,1.99087 2.85724,1.98247 2.85171,1.97409 2.84616,1.96572 2.84057,1.95738 2.83495,1.94906 2.8293,1.94077 2.82361,1.93251 2.81787,1.92429 2.8121,1.91611 "/>
     <polygon id="_542709512" class="fil1" points="4.14869,3.40158 7.93496,7.18785 7.94272,7.19871 7.95049,7.20956 7.95828,7.22042 7.96607,7.23128 7.97387,7.24213 7.98168,7.253 7.98949,7.26386 7.9973,7.27473 8.00512,7.2856 8.01293,7.29648 8.02074,7.30737 8.02854,7.31826 8.03633,7.32916 8.04411,7.34007 8.05189,7.35098 8.05964,7.36191 8.06738,7.37285 8.0751,7.3838 8.0828,7.39477 8.09048,7.40575 8.09813,7.41674 8.10576,7.42775 8.11336,7.43877 8.12093,7.44981 8.12846,7.46087 8.13597,7.47194 8.14343,7.48304 8.15086,7.49415 8.15824,7.50529 8.16559,7.51645 8.17288,7.52763 8.18013,7.53883 4.39387,3.75256 4.38661,3.74136 4.37932,3.73018 4.37198,3.71902 4.36459,3.70788 4.35717,3.69677 4.3497,3.68567 4.3422,3.6746 4.33466,3.66354 4.32709,3.6525 4.3195,3.64148 4.31187,3.63047 4.30421,3.61948 4.29654,3.6085 4.28883,3.59753 4.28111,3.58658 4.27337,3.57564 4.26562,3.56471 4.25785,3.5538 4.25006,3.54289 4.24227,3.53198 4.23447,3.52109 4.22666,3.51021 4.21885,3.49933 4.21104,3.48846 4.20322,3.47759 4.19541,3.46672 4.1876,3.45586 4.1798,3.445 4.17201,3.43415 4.16422,3.42329 4.15645,3.41244 "/>
     <polygon id="_542710040" class="fil1" points="4.39387,3.75256 8.18013,7.53883 8.18272,7.54278 8.18594,7.54762 8.18976,7.5533 8.19413,7.55976 8.19898,7.56692 8.20427,7.57473 8.20996,7.58313 8.21598,7.59204 8.22229,7.60143 8.22883,7.6112 8.23556,7.62131 8.24243,7.6317 8.24937,7.6423 8.25635,7.65305 8.26331,7.66388 8.27019,7.67474 8.27696,7.68556 8.28355,7.69627 8.28992,7.70683 8.29602,7.71715 8.30178,7.72719 8.30717,7.73688 8.31213,7.74616 8.31662,7.75496 8.32057,7.76322 8.32394,7.77089 8.32668,7.77789 8.32873,7.78417 8.33005,7.78965 8.33058,7.7943 8.33028,7.79802 8.32909,7.80078 4.54282,4.0145 4.54401,4.01175 4.54431,4.00802 4.54378,4.00338 4.54246,3.99789 4.54041,3.99162 4.53767,3.98462 4.5343,3.97695 4.53035,3.96869 4.52587,3.95989 4.52091,3.95061 4.51552,3.94092 4.50975,3.93088 4.50365,3.92056 4.49728,3.91 4.49069,3.89928 4.48393,3.88846 4.47704,3.87761 4.47008,3.86678 4.4631,3.85603 4.45616,3.84543 4.4493,3.83504 4.44256,3.82493 4.43602,3.81515 4.42971,3.80577 4.42369,3.79685 4.418,3.78846 4.41271,3.78065 4.40786,3.77348 4.4035,3.76703 4.39967,3.76135 4.39645,3.75651 "/>
     <polygon id="_542711096" class="fil1" points="4.54282,4.0145 8.32909,7.80078 8.3257,7.80257 8.3221,7.80434 8.3183,7.80609 8.3143,7.8078 8.3101,7.80948 8.3057,7.81113 8.30111,7.81276 8.29633,7.81435 8.29136,7.81592 8.2862,7.81745 8.28085,7.81895 8.27533,7.82043 8.26962,7.82186 8.26373,7.82327 8.25767,7.82465 8.25144,7.82599 4.46517,4.03972 4.47141,4.03837 4.47746,4.037 4.48335,4.03559 4.48906,4.03415 4.49459,4.03268 4.49993,4.03118 4.50509,4.02965 4.51006,4.02808 4.51485,4.02649 4.51944,4.02486 4.52383,4.02321 4.52804,4.02153 4.53204,4.01981 4.53583,4.01807 4.53943,4.0163 "/>
     <polygon id="_542711336" class="fil1" points="4.46517,4.03972 8.25144,7.82599 8.2588,7.83408 8.26612,7.84223 8.27343,7.85042 8.2807,7.85865 8.28794,7.86693 8.29516,7.87524 8.30235,7.88358 8.3095,7.89195 8.31663,7.90035 8.32372,7.90877 8.33078,7.91721 8.3378,7.92567 8.34479,7.93413 8.35174,7.94261 8.35866,7.95109 8.36554,7.95958 8.37237,7.96807 8.37917,7.97655 8.38593,7.98502 8.39265,7.99348 8.39933,8.00193 8.40596,8.01035 8.41255,8.01876 8.4191,8.02714 8.4256,8.0355 8.43205,8.04382 8.43846,8.05211 8.44481,8.06035 8.45113,8.06856 8.45739,8.07672 8.46359,8.08484 8.46975,8.0929 4.68348,4.30663 4.67733,4.29857 4.67112,4.29045 4.66486,4.28229 4.65855,4.27408 4.65219,4.26583 4.64578,4.25755 4.63933,4.24922 4.63283,4.24087 4.62628,4.23249 4.61969,4.22408 4.61306,4.21565 4.60639,4.20721 4.59967,4.19874 4.59291,4.19028 4.58611,4.1818 4.57927,4.17331 4.57239,4.16482 4.56547,4.15634 4.55852,4.14786 4.55153,4.13939 4.54451,4.13094 4.53745,4.1225 4.53036,4.11408 4.52324,4.10568 4.51608,4.09731 4.50889,4.08896 4.50168,4.08065 4.49443,4.07238 4.48716,4.06415 4.47985,4.05596 4.47253,4.04781 "/>
     <polygon id="_542710832" class="fil1" points="4.68348,4.30663 8.46975,8.0929 8.4787,8.10455 8.48776,8.11621 8.49694,8.12789 8.50621,8.13959 8.51556,8.15132 8.52498,8.16306 8.53447,8.17482 8.544,8.18661 8.55357,8.19843 8.56317,8.21026 8.57278,8.22213 8.58239,8.23402 8.59199,8.24594 8.60156,8.2579 8.61111,8.26989 8.62061,8.2819 8.63004,8.29395 8.63941,8.30604 8.6487,8.31816 8.6579,8.33032 8.667,8.34252 8.67597,8.35476 8.68482,8.36703 8.69353,8.37935 8.70208,8.39171 8.71048,8.40412 8.71869,8.41657 8.72672,8.42907 8.73456,8.44161 8.74218,8.4542 8.74957,8.46685 8.75674,8.47954 4.97047,4.69327 4.96331,4.68057 4.95591,4.66793 4.94829,4.65534 4.94046,4.6428 4.93243,4.6303 4.92421,4.61785 4.91581,4.60544 4.90726,4.59308 4.89855,4.58076 4.8897,4.56848 4.88073,4.55624 4.87163,4.54405 4.86244,4.53189 4.85315,4.51977 4.84378,4.50768 4.83434,4.49563 4.82484,4.48361 4.8153,4.47163 4.80572,4.45967 4.79612,4.44775 4.78651,4.43586 4.7769,4.42399 4.76731,4.41215 4.75774,4.40034 4.7482,4.38855 4.73872,4.37679 4.72929,4.36505 4.71994,4.35332 4.71067,4.34162 4.7015,4.32994 4.69243,4.31828 "/>
     <polygon id="_542711480" class="fil1" points="4.97047,4.69327 8.75674,8.47954 8.76306,8.49092 8.76956,8.50261 8.77622,8.51459 8.78302,8.52685 8.78991,8.53937 8.79687,8.55213 8.80387,8.56513 8.81087,8.57834 8.81787,8.59174 8.82481,8.60533 8.83168,8.61909 8.83844,8.633 8.84506,8.64704 8.85152,8.6612 8.85778,8.67547 8.86382,8.68982 8.86961,8.70424 8.87511,8.71872 8.88031,8.73324 8.88515,8.74779 8.88963,8.76234 8.89371,8.77689 8.89736,8.79141 8.90055,8.80589 8.90325,8.82031 8.90544,8.83467 8.90707,8.84894 8.90813,8.86311 8.90859,8.87715 8.90841,8.89107 8.90756,8.90483 8.90602,8.91843 5.11976,5.13216 5.1213,5.11856 5.12214,5.1048 5.12232,5.09088 5.12187,5.07683 5.12081,5.06267 5.11917,5.0484 5.11698,5.03404 5.11428,5.01961 5.11109,5.00513 5.10744,4.99061 5.10337,4.97607 5.09889,4.96152 5.09404,4.94697 5.08885,4.93245 5.08334,4.91797 5.07756,4.90355 5.07152,4.8892 5.06525,4.87493 5.0588,4.86077 5.05217,4.84673 5.04541,4.83282 5.03854,4.81906 5.0316,4.80547 5.02461,4.79207 5.0176,4.77886 5.0106,4.76586 5.00364,4.75309 4.99675,4.74057 4.98996,4.72831 4.9833,4.71633 4.97679,4.70465 "/>
     <polygon id="_542711288" class="fil1" points="2.05497,2.30046 5.84124,6.08673 5.84072,6.08739 5.83923,6.08931 5.8368,6.09244 5.83351,6.09669 5.82939,6.10199 5.82452,6.10828 5.81895,6.11549 5.81273,6.12354 5.80593,6.13236 5.79858,6.14189 5.79076,6.15206 5.78253,6.16278 5.77393,6.174 5.76502,6.18565 5.75586,6.19764 5.74651,6.20992 5.73702,6.2224 5.72745,6.23503 5.71785,6.24773 5.7083,6.26043 5.69882,6.27306 5.68949,6.28554 5.68037,6.29782 5.6715,6.30981 5.66294,6.32146 5.65476,6.33267 5.64701,6.3434 5.63974,6.35356 5.63301,6.36309 5.62688,6.37192 5.62141,6.37997 5.61664,6.38717 1.83037,2.6009 1.83514,2.5937 1.84061,2.58565 1.84674,2.57682 1.85347,2.56729 1.86074,2.55713 1.8685,2.5464 1.87668,2.53519 1.88523,2.52354 1.8941,2.51155 1.90322,2.49927 1.91256,2.48678 1.92203,2.47416 1.93159,2.46146 1.94118,2.44876 1.95075,2.43613 1.96024,2.42365 1.96959,2.41137 1.97875,2.39937 1.98766,2.38773 1.99626,2.37651 2.0045,2.36578 2.01231,2.35562 2.01966,2.34609 2.02646,2.33726 2.03269,2.32922 2.03826,2.32201 2.04313,2.31572 2.04724,2.31041 2.05054,2.30617 2.05296,2.30304 2.05446,2.30112 "/>
     <polygon id="_542711000" class="fil1" points="1.83037,2.6009 5.61664,6.38717 5.61216,6.39395 5.60753,6.40074 5.60276,6.40754 5.59789,6.41432 5.59291,6.42108 5.58786,6.4278 5.58275,6.43446 5.57761,6.44105 5.57244,6.44755 5.56728,6.45394 5.56214,6.46022 5.55704,6.46636 5.552,6.47235 5.54704,6.47818 5.54218,6.48383 5.53743,6.48928 5.53283,6.49452 5.52837,6.49954 5.5241,6.50431 5.52002,6.50882 5.51616,6.51306 5.51253,6.51702 5.50915,6.52067 5.50605,6.524 5.50324,6.52699 5.50074,6.52964 5.49857,6.53192 5.49675,6.53382 5.4953,6.53533 5.49425,6.53643 5.4936,6.53709 5.49338,6.53732 1.70711,2.75105 1.70733,2.75082 1.70798,2.75015 1.70904,2.74906 1.71048,2.74755 1.7123,2.74565 1.71447,2.74337 1.71697,2.74072 1.71978,2.73772 1.72288,2.73439 1.72626,2.73074 1.72989,2.72679 1.73375,2.72255 1.73783,2.71804 1.74211,2.71326 1.74656,2.70825 1.75117,2.70301 1.75591,2.69756 1.76077,2.69191 1.76573,2.68608 1.77078,2.68009 1.77587,2.67395 1.78102,2.66767 1.78618,2.66128 1.79134,2.65478 1.79648,2.64819 1.80159,2.64153 1.80664,2.63481 1.81162,2.62805 1.8165,2.62127 1.82126,2.61447 1.82589,2.60768 "/>
     <polygon id="_542711504" class="fil1" points="4.03167,4.09791 7.81793,7.88419 7.81516,7.89046 7.81226,7.89668 7.80926,7.90285 7.80613,7.90896 7.8029,7.91502 7.79955,7.92102 7.7961,7.92695 7.79254,7.93282 7.78887,7.93862 7.78511,7.94435 7.78124,7.95 7.77727,7.95557 7.7732,7.96106 7.76905,7.96646 7.7648,7.97178 7.76046,7.977 7.75602,7.98213 7.75151,7.98717 7.74691,7.99211 7.74222,7.99694 7.73745,8.00166 7.73261,8.00628 7.72769,8.01078 7.72269,8.01517 7.71761,8.01944 7.71247,8.02359 7.70726,8.02761 7.70198,8.03151 7.69663,8.03528 7.69122,8.03891 7.68576,8.04241 7.68022,8.04576 3.89396,4.25949 3.89949,4.25613 3.90496,4.25264 3.91037,4.249 3.91571,4.24524 3.92099,4.24134 3.9262,4.23731 3.93135,4.23317 3.93642,4.2289 3.94142,4.22451 3.94634,4.22 3.95119,4.21539 3.95595,4.21067 3.96064,4.20583 3.96524,4.2009 3.96976,4.19586 3.97419,4.19073 3.97853,4.18551 3.98278,4.18019 3.98694,4.17478 3.991,4.1693 3.99497,4.16372 3.99884,4.15807 4.00261,4.15235 4.00627,4.14655 4.00983,4.14068 4.01328,4.13475 4.01663,4.12875 4.01987,4.12269 4.02299,4.11657 4.026,4.11041 4.02889,4.10419 "/>
     <polygon id="_542711168" class="fil1" points="1.96687,2.64263 5.75314,6.4289 5.74884,6.4304 5.74438,6.43196 5.73976,6.43358 5.735,6.43526 5.73011,6.43699 5.72511,6.43876 5.72001,6.44058 5.71481,6.44244 5.70954,6.44433 5.7042,6.44625 5.69881,6.4482 5.69338,6.45018 5.68793,6.45217 5.68245,6.45419 5.67698,6.45621 5.67152,6.45824 5.66609,6.46028 5.66069,6.46231 5.65534,6.46434 5.65006,6.46637 5.64484,6.46838 5.63972,6.47038 5.6347,6.47235 5.62979,6.47431 5.625,6.47624 5.62036,6.47814 5.61587,6.48 5.61154,6.48183 5.60738,6.48361 5.60342,6.48534 5.59966,6.48703 5.59611,6.48866 1.80985,2.70239 1.81339,2.70076 1.81715,2.69907 1.82111,2.69733 1.82527,2.69556 1.8296,2.69373 1.83409,2.69187 1.83874,2.68997 1.84352,2.68804 1.84843,2.68608 1.85345,2.68411 1.85857,2.68211 1.86379,2.68009 1.86907,2.67807 1.87442,2.67604 1.87982,2.674 1.88526,2.67197 1.89072,2.66994 1.89619,2.66791 1.90166,2.6659 1.90711,2.66391 1.91254,2.66193 1.91793,2.65998 1.92327,2.65806 1.92854,2.65617 1.93374,2.65431 1.93884,2.65249 1.94385,2.65072 1.94873,2.64899 1.95349,2.64731 1.95811,2.64569 1.96257,2.64413 "/>
     <polygon id="_542711360" class="fil1" points="1.80985,2.70239 5.59611,6.48866 5.58602,6.4934 5.57606,6.49812 5.5663,6.5028 5.55681,6.50738 5.54768,6.51183 5.53896,6.51611 5.53074,6.52017 5.52307,6.52398 5.51604,6.52749 5.50972,6.53066 5.50417,6.53346 5.49947,6.53584 5.49569,6.53776 5.4929,6.53918 5.49118,6.54007 5.49059,6.54037 1.70432,2.7541 1.70491,2.7538 1.70663,2.75291 1.70943,2.75149 1.7132,2.74957 1.7179,2.74719 1.72345,2.74439 1.72978,2.74122 1.7368,2.7377 1.74447,2.7339 1.75269,2.72983 1.76141,2.72556 1.77054,2.72111 1.78003,2.71653 1.78979,2.71185 1.79975,2.70713 "/>
     <polygon id="_542711120" class="fil1" points="3.45496,4.35959 7.24122,8.14586 7.2392,8.14669 7.23711,8.14743 7.23498,8.14805 7.2328,8.14857 7.23056,8.14898 7.22828,8.14928 7.22596,8.14946 7.22358,8.14952 7.22252,8.14951 7.22147,8.14947 7.22042,8.14941 7.21938,8.14933 7.21835,8.14922 7.21732,8.14909 7.21631,8.14894 7.2153,8.14877 3.42903,4.3625 3.43004,4.36267 3.43106,4.36282 3.43208,4.36295 3.43311,4.36306 3.43415,4.36314 3.4352,4.3632 3.43625,4.36324 3.43731,4.36325 3.43969,4.36319 3.44202,4.36301 3.4443,4.36271 3.44653,4.3623 3.44871,4.36178 3.45085,4.36115 3.45293,4.36042 "/>
     <polygon id="_542711264" class="fil1" points="3.42903,4.3625 7.2153,8.14877 7.21457,8.14884 7.21383,8.14888 7.21308,8.14891 7.21233,8.14891 7.21158,8.14888 7.21083,8.14883 7.21007,8.14876 7.20931,8.14867 3.42304,4.36239 3.4238,4.36249 3.42456,4.36256 3.42531,4.36261 3.42607,4.36263 3.42681,4.36263 3.42756,4.36261 3.4283,4.36257 "/>
     <polygon id="_542712296" class="fil1" points="3.42304,4.36239 7.20931,8.14867 7.20517,8.14806 3.4189,4.36179 "/>
     <polygon id="_542712008" class="fil1" points="3.4189,4.36179 7.20517,8.14806 7.20071,8.14824 7.19626,8.14841 7.19182,8.14854 7.18738,8.14867 7.18294,8.14876 7.1785,8.14885 7.17407,8.14891 7.16964,8.14895 7.16521,8.14897 7.16079,8.14897 7.15637,8.14896 7.15195,8.14892 7.14754,8.14887 7.14313,8.1488 7.13872,8.1487 7.13431,8.14859 7.12991,8.14846 7.12551,8.14831 7.12111,8.14815 7.11672,8.14796 7.11233,8.14776 7.10794,8.14754 7.10356,8.1473 7.09917,8.14704 7.0948,8.14677 7.09042,8.14648 7.08605,8.14617 7.08168,8.14584 7.07731,8.1455 7.07294,8.14514 7.06858,8.14476 7.06422,8.14436 3.27796,4.35809 3.28231,4.35849 3.28668,4.35887 3.29104,4.35922 3.29541,4.35957 3.29978,4.3599 3.30415,4.36021 3.30853,4.3605 3.31291,4.36077 3.31729,4.36103 3.32167,4.36127 3.32606,4.36149 3.33045,4.36169 3.33485,4.36188 3.33924,4.36204 3.34364,4.36219 3.34804,4.36232 3.35245,4.36243 3.35686,4.36252 3.36127,4.36259 3.36569,4.36265 3.3701,4.36269 3.37452,4.3627 3.37894,4.3627 3.38337,4.36268 3.3878,4.36263 3.39224,4.36257 3.39667,4.36249 3.40111,4.36239 3.40555,4.36227 3.41,4.36213 3.41444,4.36197 "/>
     <polygon id="_542711552" class="fil1" points="3.27796,4.35809 7.06422,8.14436 7.06288,8.14906 7.06102,8.15381 7.05863,8.15861 7.05569,8.16345 7.05219,8.16833 7.04812,8.17323 7.04345,8.17816 7.03817,8.1831 3.25191,4.39683 3.25718,4.39189 3.26185,4.38696 3.26593,4.38206 3.26943,4.37718 3.27236,4.37233 3.27476,4.36754 3.27661,4.36278 "/>
     <polygon id="_542711792" class="fil1" points="3.20361,4.37179 6.98987,8.15806 6.98478,8.15684 6.98122,8.15635 6.97869,8.15634 6.97668,8.15657 6.97467,8.15679 6.97215,8.15676 6.9686,8.15623 6.96352,8.15496 3.17725,4.36869 3.18233,4.36996 3.18588,4.37049 3.1884,4.37052 3.19041,4.3703 3.19243,4.37007 3.19495,4.37008 3.19851,4.37057 "/>
     <polygon id="_542711720" class="fil1" points="3.11148,4.34805 6.89774,8.13432 6.8949,8.13352 6.89306,8.13295 6.89189,8.13253 6.89105,8.13219 6.8902,8.13185 6.88902,8.13146 6.88717,8.13093 6.88431,8.1302 3.09804,4.34393 3.10091,4.34466 3.10276,4.34519 3.10394,4.34558 3.10478,4.34591 3.10562,4.34626 3.10679,4.34668 3.10863,4.34725 "/>
     <polygon id="_542712200" class="fil1" points="3.05618,4.31689 6.84245,8.10316 6.83717,8.10172 6.83188,8.10026 6.82661,8.09878 6.82133,8.09729 6.81606,8.09577 6.8108,8.09424 6.80554,8.0927 6.80028,8.09113 6.79502,8.08956 6.78977,8.08796 6.78452,8.08635 6.77928,8.08472 6.77404,8.08307 6.7688,8.08141 6.76357,8.07974 6.75834,8.07805 6.75311,8.07634 6.74789,8.07462 6.74267,8.07289 6.73746,8.07114 6.73225,8.06937 6.72704,8.0676 6.72184,8.06581 6.71664,8.064 6.71144,8.06219 6.70624,8.06035 6.70106,8.05851 6.69587,8.05665 6.69069,8.05478 6.6855,8.0529 6.68033,8.051 6.67515,8.0491 2.88889,4.26283 2.89406,4.26473 2.89924,4.26663 2.90442,4.26851 2.9096,4.27038 2.91479,4.27224 2.91998,4.27408 2.92517,4.27591 2.93037,4.27773 2.93557,4.27954 2.94077,4.28133 2.94598,4.2831 2.95119,4.28487 2.95641,4.28662 2.96163,4.28835 2.96685,4.29007 2.97207,4.29178 2.9773,4.29347 2.98254,4.29514 2.98777,4.2968 2.99301,4.29844 2.99826,4.30007 3.0035,4.30169 3.00875,4.30328 3.01401,4.30486 3.01927,4.30643 3.02453,4.30797 3.0298,4.3095 3.03506,4.31102 3.04034,4.31251 3.04561,4.31398 3.0509,4.31544 "/>
     <polygon id="_542712176" class="fil1" points="2.88889,4.26283 6.67515,8.0491 6.67517,8.05221 6.67499,8.05533 6.67463,8.05847 6.67407,8.06161 6.67332,8.06476 6.67237,8.06791 6.67121,8.07105 6.66985,8.07418 6.66827,8.0773 6.66648,8.08041 6.66447,8.08349 6.66224,8.08655 6.65978,8.08958 6.65709,8.09259 6.65417,8.09555 6.65101,8.09848 2.86474,4.3122 2.86791,4.30928 2.87083,4.30631 2.87352,4.30331 2.87597,4.30028 2.8782,4.29722 2.88021,4.29413 2.882,4.29103 2.88358,4.28791 2.88494,4.28478 2.8861,4.28163 2.88705,4.27849 2.8878,4.27534 2.88836,4.2722 2.88872,4.26906 2.8889,4.26594 "/>
     <polygon id="_542712080" class="fil1" points="2.72511,4.19676 6.51138,7.98303 6.50631,7.98084 6.50124,7.97865 6.49617,7.97645 6.49111,7.97424 6.48605,7.97204 6.48099,7.96982 6.47593,7.96761 6.47088,7.96539 6.46583,7.96317 6.46078,7.96094 6.45574,7.95871 6.45069,7.95647 6.44565,7.95424 6.44061,7.952 6.43558,7.94976 6.43055,7.94752 6.42552,7.94527 6.42049,7.94302 6.41547,7.94077 6.41044,7.93852 6.40543,7.93627 6.40041,7.93402 6.3954,7.93176 6.39039,7.92951 6.38537,7.92725 6.38037,7.925 6.37536,7.92274 6.37036,7.92048 6.36536,7.91823 6.36037,7.91598 6.35537,7.91372 6.35038,7.91147 2.56411,4.1252 2.5691,4.12745 2.5741,4.1297 2.57909,4.13196 2.58409,4.13421 2.58909,4.13647 2.5941,4.13872 2.59911,4.14098 2.60412,4.14324 2.60913,4.14549 2.61414,4.14774 2.61916,4.15 2.62418,4.15225 2.6292,4.1545 2.63422,4.15675 2.63925,4.159 2.64428,4.16124 2.64931,4.16348 2.65435,4.16573 2.65939,4.16796 2.66443,4.1702 2.66947,4.17244 2.67451,4.17467 2.67956,4.17689 2.68461,4.17912 2.68967,4.18134 2.69472,4.18355 2.69978,4.18576 2.70484,4.18797 2.70991,4.19018 2.71497,4.19237 2.72004,4.19457 "/>
     <polygon id="_542711600" class="fil1" points="2.72431,4.26343 6.51058,8.0497 6.50774,8.0489 6.50589,8.04833 6.50472,8.04791 6.50388,8.04756 6.50304,8.04723 6.50186,8.04683 6.50001,8.04631 6.49714,8.04558 2.71087,4.25931 2.71374,4.26004 2.71559,4.26056 2.71678,4.26096 2.71761,4.26129 2.71845,4.26163 2.71963,4.26206 2.72147,4.26263 "/>
     <polygon id="_542711888" class="fil1" points="2.56411,4.1252 6.35038,7.91147 6.32433,7.89935 6.29835,7.88651 6.27246,7.87297 6.2467,7.85874 6.2211,7.84384 6.1957,7.82828 6.17054,7.81207 6.14564,7.79523 6.12105,7.77778 6.0968,7.75972 6.07292,7.74107 6.04945,7.72185 6.02642,7.70207 6.00387,7.68174 2.2176,3.89546 2.24015,3.9158 2.26318,3.93558 2.28665,3.9548 2.31053,3.97345 2.33478,3.99151 2.35937,4.00896 2.38427,4.0258 2.40943,4.042 2.43483,4.05757 2.46043,4.07247 2.48619,4.0867 2.51208,4.10024 2.53806,4.11307 "/>
     <polygon id="_542712248" class="fil1" points="2.71087,4.25931 6.49714,8.04558 6.49088,8.05075 6.48492,8.05622 6.47928,8.06197 6.47393,8.06798 6.46888,8.07425 6.46412,8.08076 6.45965,8.08748 6.45545,8.09442 6.45152,8.10154 6.44787,8.10885 6.44448,8.11632 6.44134,8.12393 6.43846,8.13169 6.43582,8.13956 6.43342,8.14753 6.43126,8.15559 6.42933,8.16373 6.42762,8.17193 6.42613,8.18017 6.42485,8.18844 6.42378,8.19673 6.42291,8.20502 6.42224,8.21329 6.42176,8.22154 6.42146,8.22974 6.42135,8.23788 6.42141,8.24595 6.42163,8.25394 6.42203,8.26182 6.42257,8.26958 6.42328,8.27721 6.42413,8.2847 2.63786,4.49843 2.63701,4.49094 2.63631,4.48331 2.63576,4.47555 2.63537,4.46767 2.63514,4.45968 2.63508,4.45161 2.63519,4.44347 2.63549,4.43526 2.63597,4.42702 2.63664,4.41874 2.63751,4.41046 2.63858,4.40217 2.63986,4.39389 2.64135,4.38565 2.64306,4.37746 2.64499,4.36932 2.64715,4.36126 2.64955,4.35328 2.65219,4.34541 2.65507,4.33766 2.65821,4.33005 2.6616,4.32258 2.66526,4.31527 2.66918,4.30815 2.67338,4.30121 2.67785,4.29448 2.68261,4.28798 2.68766,4.28171 2.69301,4.2757 2.69865,4.26995 2.70461,4.26448 "/>
     <polygon id="_542713064" class="fil1" points="2.81644,4.28717 6.60271,8.07344 6.59761,8.07222 6.59406,8.07173 6.59153,8.07172 6.58952,8.07195 6.58751,8.07217 6.58498,8.07214 6.58144,8.07161 6.57636,8.07034 2.79009,4.28407 2.79517,4.28534 2.79872,4.28587 2.80124,4.2859 2.80325,4.28568 2.80526,4.28545 2.80779,4.28546 2.81134,4.28595 "/>
     <polygon id="_542712944" class="fil1" points="2.79009,4.28407 6.57636,8.07034 6.57101,8.07567 6.56589,8.08121 6.56101,8.08695 6.55635,8.09287 6.55192,8.09896 6.54771,8.10523 6.54372,8.11165 6.53996,8.11822 6.53641,8.12492 6.53307,8.13176 6.52995,8.1387 6.52704,8.14576 6.52434,8.15292 6.52184,8.16017 6.51955,8.16749 6.51745,8.17489 6.51556,8.18234 6.51386,8.18985 6.51236,8.19739 6.51104,8.20497 6.50992,8.21257 6.50899,8.22018 6.50824,8.22779 6.50767,8.23539 6.50728,8.24298 6.50707,8.25053 6.50704,8.25806 6.50718,8.26553 6.5075,8.27294 6.50798,8.2803 6.50863,8.28757 6.50944,8.29476 2.72317,4.50849 2.72236,4.5013 2.72171,4.49403 2.72123,4.48667 2.72091,4.47926 2.72078,4.47178 2.72081,4.46426 2.72102,4.4567 2.7214,4.44912 2.72197,4.44152 2.72272,4.43391 2.72365,4.4263 2.72478,4.4187 2.72609,4.41112 2.72759,4.40357 2.72929,4.39607 2.73119,4.38861 2.73328,4.38122 2.73557,4.37389 2.73807,4.36665 2.74078,4.35949 2.74369,4.35243 2.74681,4.34548 2.75014,4.33865 2.75369,4.33194 2.75746,4.32538 2.76144,4.31896 2.76565,4.31269 2.77008,4.3066 2.77474,4.30068 2.77963,4.29494 2.78474,4.2894 "/>
     <polygon id="_542712560" class="fil1" points="2.86474,4.3122 6.65101,8.09848 6.64528,8.10388 6.63998,8.10954 6.6351,8.11544 6.63063,8.12158 6.62654,8.12793 6.62283,8.13448 6.61947,8.14122 6.61644,8.14815 6.61374,8.15524 6.61135,8.16248 6.60924,8.16987 6.60741,8.17738 6.60583,8.18501 6.60449,8.19274 6.60337,8.20056 6.60246,8.20846 6.60174,8.21643 6.60119,8.22445 6.6008,8.23251 6.60055,8.24059 6.60042,8.2487 6.6004,8.2568 6.60048,8.26489 6.60062,8.27296 6.60083,8.28099 6.60108,8.28898 6.60135,8.2969 6.60163,8.30475 6.60191,8.31252 6.60216,8.32018 6.60237,8.32773 6.60252,8.33516 2.81626,4.54889 2.8161,4.54146 2.81589,4.53391 2.81564,4.52624 2.81537,4.51848 2.81508,4.51063 2.81481,4.5027 2.81456,4.49472 2.81435,4.48669 2.81421,4.47862 2.81413,4.47053 2.81415,4.46243 2.81428,4.45432 2.81453,4.44624 2.81492,4.43818 2.81547,4.43016 2.81619,4.42219 2.8171,4.41429 2.81822,4.40647 2.81956,4.39874 2.82114,4.39111 2.82297,4.38359 2.82508,4.37621 2.82748,4.36897 2.83018,4.36188 2.8332,4.35495 2.83656,4.34821 2.84028,4.34165 2.84436,4.33531 2.84883,4.32917 2.85371,4.32327 2.85901,4.31761 "/>
     <polygon id="_542712872" class="fil1" points="2.81626,4.54889 6.60252,8.33516 6.60212,8.34006 6.60081,8.3443 6.59874,8.34789 6.59602,8.35083 6.59278,8.35311 6.58915,8.35475 6.58526,8.35572 6.58123,8.35605 6.57719,8.35572 6.57327,8.35475 6.56959,8.35311 6.56628,8.35083 2.78001,4.56456 2.78332,4.56684 2.787,4.56848 2.79093,4.56945 2.79496,4.56978 2.79899,4.56945 2.80289,4.56848 2.80651,4.56684 2.80975,4.56456 2.81247,4.56162 2.81454,4.55803 2.81585,4.55379 "/>
     <polygon id="_542712584" class="fil1" points="3.09804,4.34393 6.88431,8.1302 6.87804,8.13537 6.87209,8.14084 6.86644,8.14659 6.86109,8.15261 6.85604,8.15887 6.85128,8.16538 6.84681,8.17211 6.84261,8.17904 6.83869,8.18617 6.83503,8.19347 6.83164,8.20094 6.8285,8.20856 6.82562,8.21631 6.82298,8.22418 6.82059,8.23215 6.81842,8.24021 6.81649,8.24835 6.81478,8.25655 6.81329,8.26479 6.81201,8.27306 6.81094,8.28135 6.81007,8.28964 6.8094,8.29791 6.80892,8.30616 6.80863,8.31436 6.80851,8.32251 6.80857,8.33058 6.8088,8.33856 6.80919,8.34644 6.80974,8.35421 6.81044,8.36184 6.81129,8.36932 3.02502,4.58305 3.02417,4.57557 3.02347,4.56794 3.02292,4.56017 3.02253,4.55229 3.0223,4.54431 3.02224,4.53624 3.02236,4.52809 3.02265,4.51989 3.02313,4.51164 3.02381,4.50337 3.02467,4.49508 3.02574,4.48679 3.02702,4.47852 3.02851,4.47028 3.03022,4.46208 3.03215,4.45394 3.03432,4.44588 3.03672,4.43791 3.03935,4.43004 3.04224,4.42228 3.04537,4.41467 3.04876,4.4072 3.05242,4.39989 3.05634,4.39277 3.06054,4.38583 3.06502,4.37911 3.06978,4.3726 3.07483,4.36633 3.08017,4.36032 3.08582,4.35457 3.09178,4.3491 "/>
     <polygon id="_542712992" class="fil1" points="3.17725,4.36869 6.96352,8.15496 6.95817,8.1603 6.95306,8.16583 6.94817,8.17157 6.94351,8.17749 6.93908,8.18359 6.93487,8.18985 6.93089,8.19627 6.92712,8.20284 6.92357,8.20954 6.92024,8.21638 6.91712,8.22333 6.9142,8.23039 6.9115,8.23754 6.909,8.24479 6.90671,8.25211 6.90462,8.25951 6.90272,8.26696 6.90102,8.27447 6.89952,8.28202 6.89821,8.28959 6.89709,8.29719 6.89615,8.3048 6.8954,8.31241 6.89483,8.32001 6.89444,8.3276 6.89424,8.33515 6.8942,8.34268 6.89435,8.35015 6.89466,8.35757 6.89514,8.36492 6.89579,8.3722 6.8966,8.37939 3.11033,4.59311 3.10952,4.58593 3.10887,4.57865 3.10839,4.5713 3.10808,4.56388 3.10794,4.55641 3.10797,4.54888 3.10818,4.54133 3.10856,4.53374 3.10913,4.52614 3.10988,4.51853 3.11082,4.51092 3.11194,4.50332 3.11325,4.49574 3.11476,4.4882 3.11645,4.48069 3.11835,4.47324 3.12044,4.46584 3.12274,4.45852 3.12524,4.45127 3.12794,4.44411 3.13085,4.43706 3.13397,4.43011 3.13731,4.42327 3.14085,4.41657 3.14462,4.41 3.14861,4.40358 3.15281,4.39731 3.15724,4.39122 3.1619,4.3853 3.16679,4.37956 3.1719,4.37402 "/>
     <polygon id="_542712344" class="fil1" points="2.72317,4.50849 6.50944,8.29476 6.50956,8.2996 6.50871,8.30379 6.50702,8.30733 6.50461,8.31022 6.50162,8.31247 6.49816,8.31407 6.49437,8.31502 6.49038,8.31533 6.4863,8.315 6.48227,8.31402 6.47841,8.31241 6.47486,8.31016 2.68859,4.52389 2.69215,4.52614 2.696,4.52775 2.70003,4.52873 2.70411,4.52906 2.70811,4.52875 2.71189,4.5278 2.71535,4.5262 2.71834,4.52395 2.72075,4.52106 2.72244,4.51752 2.72329,4.51333 "/>
     <polygon id="_542712416" class="fil1" points="3.02502,4.58305 6.81129,8.36932 6.81141,8.37416 6.81055,8.37835 6.80885,8.38189 6.80644,8.38479 6.80345,8.38703 6.8,8.38863 6.7962,8.38959 6.79221,8.3899 6.78813,8.38957 6.78411,8.38859 6.78026,8.38698 6.7767,8.38472 2.99043,4.59845 2.99399,4.6007 2.99784,4.60232 3.00187,4.6033 3.00594,4.60363 3.00994,4.60331 3.01373,4.60236 3.01719,4.60076 3.02018,4.59852 3.02259,4.59562 3.02428,4.59208 3.02514,4.58789 "/>
     <polygon id="_542712488" class="fil1" points="3.11033,4.59311 6.8966,8.37939 6.89672,8.38422 6.89587,8.38841 6.89418,8.39195 6.89178,8.39485 6.88878,8.39709 6.88533,8.39869 6.88154,8.39964 6.87754,8.39995 6.87346,8.39962 6.86943,8.39865 6.86557,8.39703 6.86202,8.39478 3.07575,4.60851 3.07931,4.61076 3.08317,4.61237 3.0872,4.61335 3.09127,4.61368 3.09527,4.61337 3.09906,4.61242 3.10251,4.61082 3.10551,4.60857 3.10791,4.60568 3.1096,4.60214 3.11045,4.59795 "/>
     <polygon id="_542712824" class="fil1" points="2.63786,4.49843 6.42413,8.2847 6.42424,8.28954 6.42339,8.29373 6.42169,8.29727 6.41928,8.30017 6.41629,8.30241 6.41283,8.30401 6.40904,8.30496 6.40505,8.30528 6.40097,8.30494 6.39694,8.30397 6.39309,8.30235 6.38954,8.3001 2.60327,4.51383 2.60682,4.51608 2.61068,4.5177 2.6147,4.51867 2.61878,4.519 2.62278,4.51869 2.62656,4.51774 2.63002,4.51614 2.63302,4.51389 2.63543,4.511 2.63712,4.50746 2.63797,4.50327 "/>
     <polygon id="_542713568" class="fil1" points="3.25191,4.39683 7.03817,8.1831 7.03244,8.1885 7.02714,8.19417 7.02226,8.20007 7.01779,8.2062 7.0137,8.21255 7.00999,8.2191 7.00663,8.22585 7.00361,8.23277 7.00091,8.23986 6.99851,8.24711 6.99641,8.25449 6.99457,8.262 6.99299,8.26963 6.99165,8.27737 6.99053,8.28519 6.98962,8.29309 6.9889,8.30106 6.98835,8.30907 6.98796,8.31713 6.98771,8.32522 6.98759,8.33332 6.98757,8.34142 6.98764,8.34951 6.98779,8.35758 6.988,8.36561 6.98824,8.3736 6.98852,8.38152 6.9888,8.38937 6.98907,8.39714 6.98932,8.4048 6.98954,8.41235 6.98969,8.41978 3.20342,4.63351 3.20327,4.62608 3.20306,4.61853 3.20281,4.61087 3.20253,4.6031 3.20225,4.59525 3.20198,4.58733 3.20173,4.57934 3.20152,4.57131 3.20137,4.56324 3.2013,4.55515 3.20132,4.54705 3.20144,4.53894 3.20169,4.53086 3.20209,4.5228 3.20263,4.51478 3.20335,4.50681 3.20426,4.49891 3.20538,4.49109 3.20672,4.48336 3.2083,4.47573 3.21014,4.46822 3.21224,4.46083 3.21464,4.45359 3.21734,4.4465 3.22036,4.43957 3.22372,4.43283 3.22744,4.42628 3.23152,4.41993 3.236,4.4138 3.24087,4.40789 3.24617,4.40223 "/>
     <polygon id="_542713352" class="fil1" points="3.20342,4.63351 6.98969,8.41978 6.98928,8.42468 6.98798,8.42892 6.9859,8.43251 6.98318,8.43545 6.97994,8.43774 6.97631,8.43937 6.97243,8.44035 6.96839,8.44067 6.96435,8.44035 6.96043,8.43937 6.95675,8.43774 6.95344,8.43545 3.16717,4.64918 3.17048,4.65146 3.17417,4.6531 3.17809,4.65407 3.18213,4.6544 3.18616,4.65407 3.19005,4.6531 3.19368,4.65146 3.19691,4.64918 3.19963,4.64624 3.20171,4.64265 3.20301,4.63841 "/>
     <polygon id="_542713400" class="fil1" points="3.89396,4.25949 7.68022,8.04576 7.66874,8.05233 7.65716,8.05854 7.6455,8.06439 7.63375,8.0699 7.62193,8.07509 7.61002,8.07996 7.59805,8.08453 7.586,8.08881 7.57388,8.09282 7.56169,8.09657 7.54944,8.10009 7.53713,8.10337 7.52476,8.10643 7.51233,8.10928 7.49985,8.11195 7.48731,8.11445 7.47472,8.11678 7.46209,8.11896 7.44942,8.12102 7.4367,8.12295 7.42395,8.12477 7.41116,8.1265 7.39833,8.12816 7.38547,8.12974 7.37259,8.13128 7.35967,8.13278 7.34674,8.13426 7.33378,8.13572 7.3208,8.13719 7.30781,8.13868 7.29481,8.1402 7.28179,8.14176 3.49552,4.35549 3.50854,4.35393 3.52155,4.35241 3.53454,4.35092 3.54751,4.34945 3.56047,4.34798 3.57341,4.34651 3.58632,4.34501 3.5992,4.34347 3.61206,4.34189 3.62489,4.34023 3.63768,4.3385 3.65044,4.33668 3.66315,4.33474 3.67583,4.33269 3.68846,4.33051 3.70104,4.32818 3.71358,4.32568 3.72606,4.32301 3.73849,4.32015 3.75086,4.31709 3.76317,4.31381 3.77543,4.3103 3.78761,4.30655 3.79973,4.30254 3.81178,4.29826 3.82376,4.29369 3.83566,4.28881 3.84748,4.28363 3.85923,4.27812 3.87089,4.27227 3.88247,4.26606 "/>
     <polygon id="_542713736" class="fil1" points="3.49552,4.35549 7.28179,8.14176 7.2767,8.14237 7.27163,8.14295 7.26655,8.1435 7.26148,8.14403 7.25641,8.14453 7.25134,8.145 7.24628,8.14544 7.24122,8.14586 3.45496,4.35959 3.46001,4.35917 3.46507,4.35873 3.47014,4.35826 3.47521,4.35776 3.48028,4.35723 3.48536,4.35668 3.49044,4.3561 "/>
     <polygon id="_542713160" class="fil1" points="5.11976,5.13216 8.90602,8.91843 8.90525,8.92333 8.90432,8.92822 8.90322,8.93312 8.90196,8.93801 8.90054,8.94288 8.89898,8.94773 8.89726,8.95256 8.89539,8.95736 8.89338,8.96212 8.89123,8.96684 8.88894,8.97151 8.88652,8.97613 8.88396,8.98069 8.88128,8.98519 8.87847,8.98963 8.87554,8.99398 8.87249,8.99826 8.86932,9.00246 8.86604,9.00657 8.86265,9.01058 8.85916,9.01449 8.85556,9.01829 8.85185,9.02199 8.84806,9.02556 8.84416,9.02902 8.84018,9.03235 8.8361,9.03554 8.83194,9.0386 8.8277,9.04151 8.82339,9.04428 8.81899,9.04689 8.81452,9.04934 5.02825,5.26307 5.03272,5.26061 5.03712,5.258 5.04144,5.25524 5.04568,5.25233 5.04983,5.24927 5.05391,5.24607 5.05789,5.24275 5.06179,5.23929 5.06559,5.23572 5.06929,5.23202 5.07289,5.22822 5.07639,5.22431 5.07978,5.2203 5.08306,5.21619 5.08622,5.21199 5.08928,5.20771 5.0922,5.20335 5.09502,5.19892 5.0977,5.19442 5.10025,5.18986 5.10268,5.18524 5.10496,5.18057 5.10711,5.17585 5.10913,5.17109 5.11099,5.16629 5.11271,5.16146 5.11428,5.15661 5.11569,5.15174 5.11695,5.14685 5.11805,5.14195 5.11898,5.13706 "/>
     <polygon id="_542713208" class="fil1" points="5.02825,5.26307 8.81452,9.04934 8.80536,9.0538 8.79628,9.05754 8.78728,9.06057 8.77836,9.06294 8.76952,9.06465 8.76076,9.06574 8.75209,9.06623 8.7435,9.06615 8.73501,9.06552 8.7266,9.06437 8.71828,9.06272 8.71005,9.06059 8.70192,9.05803 8.69388,9.05504 8.68594,9.05165 8.6781,9.04789 8.67036,9.04379 8.66272,9.03936 8.65519,9.03464 8.64775,9.02965 8.64043,9.02441 8.63321,9.01896 8.6261,9.01331 8.6191,9.00749 8.61222,9.00153 8.60544,8.99544 8.59879,8.98927 8.59225,8.98302 4.80598,5.19675 4.81252,5.203 4.81918,5.20917 4.82595,5.21526 4.83283,5.22122 4.83983,5.22704 4.84694,5.23269 4.85416,5.23814 4.86148,5.24338 4.86892,5.24837 4.87645,5.25309 4.88409,5.25752 4.89183,5.26162 4.89968,5.26538 4.90761,5.26876 4.91565,5.27176 4.92378,5.27432 4.93201,5.27644 4.94033,5.27809 4.94874,5.27925 4.95724,5.27988 4.96582,5.27996 4.9745,5.27947 4.98325,5.27838 4.99209,5.27667 5.00101,5.2743 5.01002,5.27126 5.01909,5.26753 "/>
     <polygon id="_542713232" class="fil1" points="3.06246,1.60967 6.84873,5.39594 6.85204,5.39987 6.85422,5.40369 6.85532,5.40738 6.85537,5.41091 6.85443,5.41426 6.8525,5.41739 6.84966,5.42031 6.84593,5.42296 6.84135,5.42534 6.83596,5.42742 6.82981,5.42918 6.82292,5.43058 6.81535,5.43162 6.80713,5.43226 6.79829,5.43247 3.01202,1.6462 3.02086,1.64598 3.02908,1.64535 3.03665,1.64431 3.04354,1.64291 3.04969,1.64115 3.05508,1.63907 3.05966,1.63669 3.06339,1.63404 3.06624,1.63112 3.06816,1.62798 3.06911,1.62464 3.06906,1.62111 3.06795,1.61742 3.06577,1.6136 "/>
     <polygon id="_542713592" class="fil1" points="3.01202,1.6462 6.79829,5.43247 6.78915,5.43249 6.77999,5.43254 6.77081,5.43263 6.76164,5.43278 6.75248,5.43296 6.74334,5.43321 6.73424,5.43351 6.72519,5.43388 6.7162,5.43431 6.70729,5.43482 6.69846,5.43541 6.68973,5.43608 6.68111,5.43683 6.67261,5.43769 6.66424,5.43863 6.65602,5.43967 6.64796,5.44083 6.64007,5.44209 6.63236,5.44346 6.62485,5.44496 6.61754,5.44658 6.61045,5.44833 6.6036,5.45021 6.59698,5.45223 6.59063,5.45439 6.58454,5.4567 6.57873,5.45916 6.57321,5.46178 6.568,5.46456 6.5631,5.4675 6.55853,5.47062 6.5543,5.47391 2.76803,1.68764 2.77226,1.68435 2.77683,1.68123 2.78173,1.67829 2.78694,1.67551 2.79246,1.67289 2.79827,1.67043 2.80436,1.66812 2.81072,1.66596 2.81733,1.66394 2.82419,1.66206 2.83127,1.66031 2.83858,1.65869 2.84609,1.65719 2.8538,1.65581 2.86169,1.65456 2.86975,1.6534 2.87797,1.65236 2.88634,1.65141 2.89484,1.65056 2.90346,1.64981 2.91219,1.64914 2.92102,1.64855 2.92994,1.64804 2.93893,1.64761 2.94798,1.64724 2.95707,1.64694 2.96621,1.64669 2.97537,1.6465 2.98455,1.64636 2.99372,1.64627 3.00288,1.64622 "/>
     <polygon id="_542713328" class="fil1" points="2.76803,1.68764 6.5543,5.47391 6.54699,5.48047 6.5412,5.48664 6.53677,5.49241 6.53357,5.49778 6.53145,5.50275 6.53027,5.5073 6.52989,5.51144 6.53015,5.51516 6.53092,5.51846 6.53206,5.52133 6.53341,5.52377 6.53484,5.52578 6.5362,5.52734 2.74993,1.74107 2.74857,1.7395 2.74714,1.7375 2.74579,1.73506 2.74465,1.73219 2.74388,1.72889 2.74362,1.72517 2.744,1.72103 2.74519,1.71648 2.7473,1.71151 2.7505,1.70614 2.75493,1.70037 2.76072,1.6942 "/>
     <polygon id="_542713616" class="fil1" points="3.15115,1.82725 6.93742,5.61352 6.94117,5.61786 6.94437,5.62202 6.94706,5.62602 6.94924,5.62983 6.95095,5.63345 6.95221,5.63687 6.95304,5.64009 6.95346,5.64309 6.9535,5.64588 6.95318,5.64843 6.95252,5.65074 6.95155,5.65281 6.95029,5.65463 6.94876,5.65618 6.94699,5.65746 6.945,5.65847 6.94281,5.6592 6.94044,5.65962 6.93792,5.65975 6.93528,5.65957 3.14901,1.8733 3.15165,1.87348 3.15417,1.87335 3.15654,1.87293 3.15873,1.8722 3.16072,1.87119 3.1625,1.86991 3.16402,1.86835 3.16528,1.86654 3.16625,1.86447 3.16691,1.86216 3.16723,1.85961 3.16719,1.85682 3.16677,1.85382 3.16594,1.8506 3.16468,1.84718 3.16297,1.84356 3.16079,1.83975 3.15811,1.83575 3.1549,1.83159 "/>
     <polygon id="_542713688" class="fil1" points="3.14901,1.8733 6.93528,5.65957 6.93228,5.6592 6.92871,5.65878 6.92459,5.65832 6.91994,5.65782 6.91478,5.65731 6.90912,5.65678 6.90299,5.65626 6.89641,5.65574 6.88939,5.65524 6.88197,5.65478 6.87415,5.65436 6.86595,5.65399 6.8574,5.65369 6.84852,5.65346 6.83932,5.65331 6.82983,5.65326 6.82007,5.65331 6.81005,5.65349 6.79979,5.65378 6.78932,5.65422 6.77866,5.6548 6.76781,5.65554 6.75682,5.65645 6.74569,5.65754 6.73444,5.65882 6.72309,5.6603 6.71167,5.66199 6.70019,5.66391 6.68867,5.66605 6.67714,5.66844 6.66561,5.67108 6.6541,5.67399 2.86783,1.88772 2.87934,1.88481 2.89087,1.88217 2.90241,1.87978 2.91392,1.87763 2.9254,1.87572 2.93682,1.87403 2.94817,1.87255 2.95942,1.87127 2.97055,1.87018 2.98155,1.86927 2.99239,1.86853 3.00306,1.86795 3.01352,1.86751 3.02378,1.86722 3.0338,1.86704 3.04356,1.86699 3.05306,1.86704 3.06225,1.86719 3.07113,1.86742 3.07969,1.86772 3.08788,1.86809 3.0957,1.86851 3.10313,1.86897 3.11014,1.86947 3.11672,1.86998 3.12285,1.87051 3.12851,1.87104 3.13367,1.87155 3.13832,1.87205 3.14244,1.87251 3.14601,1.87293 "/>
     <polygon id="_542714216" class="fil1" points="2.86783,1.88772 6.6541,5.67399 6.64984,5.67513 6.64564,5.6763 6.64149,5.67748 6.6374,5.67869 6.63336,5.6799 6.62938,5.68114 6.62545,5.68239 6.62158,5.68366 6.61776,5.68494 6.614,5.68624 6.61029,5.68754 6.60663,5.68886 6.60304,5.69019 6.59949,5.69154 6.596,5.69289 6.59256,5.69424 2.80629,1.90797 2.80973,1.90661 2.81322,1.90526 2.81677,1.90392 2.82037,1.90259 2.82402,1.90127 2.82773,1.89996 2.83149,1.89867 2.83531,1.89739 2.83918,1.89612 2.84311,1.89487 2.84709,1.89363 2.85113,1.89241 2.85522,1.89121 2.85937,1.89003 2.86357,1.88886 "/>
     <polygon id="_542714504" class="fil1" points="2.98029,2.17193 6.76656,5.9582 6.77502,5.97031 6.78363,5.98228 6.79237,5.9941 6.80126,6.0058 6.81028,6.01736 6.81942,6.02881 6.8287,6.04013 6.83809,6.05133 6.84761,6.06243 6.85724,6.07341 6.86698,6.08429 6.87683,6.09507 6.88678,6.10575 6.89684,6.11634 3.11057,2.33007 3.10052,2.31948 3.09056,2.3088 3.08071,2.29802 3.07097,2.28714 3.06134,2.27615 3.05182,2.26506 3.04243,2.25385 3.03315,2.24254 3.02401,2.23109 3.01499,2.21952 3.0061,2.20783 2.99736,2.196 2.98875,2.18404 "/>
     <polygon id="_542714528" class="fil1" points="3.33645,2.53954 7.12272,6.32581 7.12767,6.33101 7.13254,6.33627 7.13731,6.34157 7.142,6.34693 7.14661,6.35234 7.15114,6.3578 7.1556,6.36329 7.15999,6.36883 7.16431,6.37441 7.16857,6.38004 3.3823,2.59376 3.37804,2.58814 3.37372,2.58256 3.36933,2.57702 3.36487,2.57152 3.36034,2.56607 3.35573,2.56066 3.35104,2.5553 3.34627,2.55 3.34141,2.54474 "/>
     <polygon id="_542714000" class="fil1" points="3.77756,2.93789 7.56382,6.72416 7.57634,6.73775 7.5888,6.75142 7.60119,6.76517 7.61352,6.77899 7.62579,6.79289 7.63799,6.80687 7.65013,6.82091 7.66221,6.83502 7.67422,6.84919 7.68618,6.86343 7.69808,6.87773 7.70992,6.89209 7.7217,6.9065 7.73341,6.92097 7.74507,6.93548 7.75668,6.95005 7.76823,6.96467 7.77972,6.97932 7.79115,6.99402 7.80253,7.00876 7.81386,7.02354 7.82513,7.03835 7.83635,7.05319 7.84751,7.06806 7.85862,7.08296 7.86968,7.09789 7.88069,7.11284 7.89164,7.12781 7.90254,7.1428 7.9134,7.1578 7.9242,7.17282 7.93496,7.18785 4.14869,3.40158 4.13794,3.38655 4.12713,3.37153 4.11628,3.35653 4.10537,3.34154 4.09442,3.32657 4.08341,3.31162 4.07235,3.29669 4.06124,3.28179 4.05008,3.26692 4.03886,3.25207 4.02759,3.23726 4.01626,3.22249 4.00489,3.20775 3.99345,3.19305 3.98196,3.17839 3.97041,3.16378 3.95881,3.14921 3.94715,3.1347 3.93543,3.12023 3.92365,3.10581 3.91181,3.09146 3.89991,3.07716 3.88796,3.06292 3.87594,3.04874 3.86386,3.03463 3.85172,3.02059 3.83952,3.00662 3.82726,2.99272 3.81493,2.97889 3.80253,2.96515 3.79007,2.95148 "/>
     <polygon id="_542714024" class="fil1" points="3.73393,2.89155 7.52019,6.67782 7.53119,6.68936 7.54213,6.70093 7.55301,6.71254 7.56382,6.72416 3.77756,2.93789 3.76674,2.92626 3.75586,2.91466 3.74493,2.90309 "/>
    </g>
    <path id="_637666216" class="fil1" d="M3.77756 2.93789c0.133909,0.144488 0.256665,0.303323 0.371138,0.463689 0.0826693,0.115815 0.168087,0.231358 0.245173,0.35098 0.0239173,0.0371024 0.166591,0.237996 0.148953,0.261945 -0.0175197,0.00966535 -0.0439488,0.0181378 -0.0776457,0.0252126 0.0785748,0.0860669 0.152906,0.181209 0.218311,0.266913 0.0947559,0.124154 0.211854,0.250969 0.286988,0.386638 0.0662874,0.119673 0.169508,0.294783 0.149283,0.43889 -0.00732283,0.0522126 -0.0434606,0.105634 -0.0915039,0.130909 -0.0980787,0.0515394 -0.183291,-0.0249094 -0.247228,-0.0914685 -0.137311,-0.142937 -0.253079,-0.326161 -0.363169,-0.490217 -0.116551,-0.173701 -0.229248,-0.342087 -0.346051,-0.51548 -0.0155079,-0.0230197 -0.0277283,-0.0456654 -0.0401378,-0.0679882 -0.0289606,0.067126 -0.0784094,0.126531 -0.137709,0.161575 -0.122083,0.0721496 -0.259543,0.0790197 -0.398433,0.0960039 -0.0135669,0.00165748 -0.0270866,0.00301969 -0.0405669,0.00409449 -0.00533465,0.00235433 -0.0112559,0.00366142 -0.0176417,0.00366142 -0.00283858,0 -0.0056063,-0.000255906 -0.00828346,-0.000748031 -0.00194882,0.000208661 -0.00395669,0.000181102 -0.00598819,-0.000106299l-0.00414567 -0.000602362c-0.0475,0.0020315 -0.0944646,0.000610236 -0.140941,-0.00370079 -0.00290551,0.0124331 -0.0111614,0.0255512 -0.0260512,0.0387362 -0.0635472,0.0562598 -0.0497638,0.15815 -0.0484843,0.236685 0.000444882,0.0278543 -0.0428071,0.0278543 -0.0432598,0 -0.00143701,-0.0895394 -0.0188937,-0.195382 0.0434449,-0.261724 -0.0161063,-0.00443307 -0.0102953,0.00149606 -0.0263543,-0.00309843 -0.058311,0.0557717 -0.0764567,0.148217 -0.0669213,0.224425 0.00345276,0.0275433 -0.0398543,0.0273031 -0.0432598,0 -0.00995669,-0.0795512 -0.00833858,-0.180142 0.0444055,-0.245067 -0.00922835,-0.00247244 -0.00415354,-0.00184646 -0.013437,-0.00411811 -0.0685157,0.0535354 -0.0828386,0.160122 -0.0730157,0.239122 0.00340945,0.0275512 -0.039874,0.027315 -0.043252,0 -0.0175866,-0.141354 0.0203307,-0.223724 0.0744094,-0.266165 -0.0563937,-0.0152756 -0.11213,-0.0336614 -0.167295,-0.0540591 0.000547244,0.0165394 -0.00664961,0.0338858 -0.0241417,0.049378 -0.0635472,0.0562598 -0.0497677,0.15815 -0.0484882,0.236685 0.000448819,0.0278543 -0.0428071,0.0278543 -0.0432598,0 -0.00143701,-0.0895394 -0.0188937,-0.195382 0.0434449,-0.261724 -0.0161063,-0.00443307 -0.0102913,0.00149606 -0.0263504,-0.00309843 -0.058315,0.0557717 -0.0764567,0.148217 -0.0669213,0.224425 0.00344882,0.0275433 -0.0398543,0.0273031 -0.0432598,0 -0.00995669,-0.0795512 -0.00833858,-0.180142 0.0444055,-0.245067 -0.00923228,-0.00247244 -0.00415354,-0.00184646 -0.0134409,-0.00411811 -0.0685157,0.0535354 -0.0828346,0.160122 -0.0730157,0.239118 0.00341339,0.0275551 -0.039874,0.0273189 -0.043248,0 -0.0137087,-0.110177 0.0256142,-0.265307 0.130504,-0.301669 -0.054122,-0.023315 -0.107764,-0.0475354 -0.161004,-0.0715591 -0.278016,-0.125433 -0.55172,-0.375484 -0.631106,-0.673028 -0.0331496,-0.124319 -0.0384449,-0.25465 -0.0384449,-0.384256 0,-0.0647717 0.00571654,-0.12389 0.0190669,-0.186382 0.00479528,-0.0224055 0.0119134,-0.0452126 0.0184331,-0.0682244 -0.00156299,-0.0319843 0.00664567,-0.0652402 0.0158031,-0.0997835 -0.000110236,-0.00211024 -0.000255906,-0.00422047 -0.000444882,-0.00633071l0.00241339 -0.00107087c0.00242913,-0.00912598 0.00487795,-0.0183386 0.00719291,-0.0276378 0.00294882,-0.0118543 0.00626378,-0.023811 0.00984646,-0.0358583 -0.0449016,0.0156535 -0.120398,0.0426693 -0.157024,0.0597598 -0.0540748,0.0252323 -0.105528,0.0517126 -0.105528,0.0517126 0.145157,-0.137146 0.236165,-0.291811 0.35065,-0.453638 0,0 -0.17774,0.228343 -0.224598,0.300441 -0.0468661,0.0720945 -0.12326,0.150146 -0.12326,0.150146 0,0 -0.00540551,-0.111744 0.0126181,-0.248724 0.0159882,-0.121524 0.0504213,-0.210421 0.0579882,-0.228933 -0.0129685,-0.0227598 -0.0172992,-0.0542362 -0.0177441,-0.0945197 -0.0028189,-0.253732 0.189217,-0.495638 0.439752,-0.530224 0.0576654,-0.00796063 0.117185,-0.0117677 0.17574,-0.00825197 0.0635433,-0.041063 0.201598,-0.106606 0.420276,-0.0915197 0.313614,0.021626 0.313614,0.0973268 0.216283,0.0973268 -0.0973228,0 -0.200736,0.0053937 -0.243992,0.041437 -0.0432598,0.0360512 -0.0158543,0.0554606 -0.0158543,0.0554606 0,0 0.169724,-0.0392244 0.303102,0.0220551 0.133378,0.0612795 0.122563,0.111752 0.0937283,0.108146 -0.0288425,-0.0036063 -0.158614,-0.0180236 -0.281173,0.0144173 -0.0228661,0.00605118 -0.0433504,0.0129843 -0.0615433,0.0202559 0.0622323,0.0865472 0.116961,0.181181 0.173996,0.263961 0.0894843,0.129886 0.204217,0.235071 0.324327,0.337618 0.0300512,0.0256535 0.0551339,0.0541299 0.077685,0.0842126 0.00379921,0.00240551 0.0075748,0.00480709 0.0113228,0.00720866 0.143902,0.0921142 0.268874,0.212776 0.383933,0.336917z"/>
   </g>
  </g>
  <path class="fil2" d="M3.41333 -3.93701e-006c1.88513,0 3.41333,1.5282 3.41333,3.41333 0,1.88513 -1.5282,3.41333 -3.41333,3.41333 -1.88513,0 -3.41333,-1.5282 -3.41333,-3.41333 0,-1.88513 1.5282,-3.41333 3.41333,-3.41333z"/>
  <path class="fil3" d="M2.81644 4.28717c-0.0161063,-0.00443307 -0.0102913,0.00149606 -0.0263504,-0.00309843 -0.058315,0.0557717 -0.0764567,0.148217 -0.0669213,0.224425 0.00344882,0.0275433 -0.0398543,0.0273031 -0.0432598,0 -0.00995669,-0.0795512 -0.00833858,-0.180142 0.0444055,-0.245067 -0.00923228,-0.00247244 -0.00415354,-0.00184646 -0.0134409,-0.00411811 -0.0685157,0.0535354 -0.0828346,0.160122 -0.0730157,0.239118 0.00341339,0.0275551 -0.039874,0.0273189 -0.043248,0 -0.0176339,-0.141724 0.0524803,-0.357827 0.23702,-0.299846 0.0525512,0.0165118 0.080311,0.0718268 0.0331142,0.113626 -0.0635472,0.0562598 -0.0497677,0.15815 -0.0484882,0.236685 0.000448819,0.0278543 -0.0428071,0.0278543 -0.0432598,0 -0.00143701,-0.0895394 -0.0188937,-0.195382 0.0434449,-0.261724z"/>
  <path class="fil4" d="M4.32654 3.90395c0.128925,0.109484 0.253988,0.267768 0.356945,0.402677 0.0947598,0.124154 0.211854,0.250969 0.286988,0.386634 0.0662874,0.119677 0.169508,0.294787 0.149283,0.43889 -0.00732283,0.0522165 -0.0434646,0.105638 -0.0915039,0.130913 -0.0980787,0.0515394 -0.183295,-0.0249094 -0.247232,-0.0914685 -0.137311,-0.142937 -0.253075,-0.326161 -0.363165,-0.49022 -0.116551,-0.173697 -0.229248,-0.342083 -0.346055,-0.515476 -0.0338937,-0.0503228 -0.0520787,-0.0988465 -0.0908898,-0.146169 -0.0194291,-0.0236732 -0.0558504,-0.0545945 -0.0664921,-0.0817717 -0.0301063,-0.0768701 0.0818307,-0.0998898 0.136134,-0.109551 0.0865827,-0.0153898 0.176126,-0.0253976 0.275988,0.0755433z"/>
  <path class="fil5" d="M1.94742 2.70719c0.00524016,0.0586142 -0.0216811,0.117748 -0.0337953,0.174339 -0.0133465,0.0624882 -0.0190669,0.12161 -0.0190669,0.186382 0,0.129602 0.00529921,0.259937 0.0384449,0.384256 0.0793898,0.297543 0.353094,0.547594 0.63111,0.673028 0.293531,0.132445 0.599177,0.270933 0.931413,0.230295 0.138894,-0.0169843 0.27635,-0.0238543 0.398433,-0.0960039 0.124996,-0.073874 0.206236,-0.25598 0.144047,-0.390496 -0.0817717,-0.176886 -0.185657,-0.33698 -0.304626,-0.492071 -0.129331,-0.168606 -0.277606,-0.317173 -0.446354,-0.446602 -0.151142,-0.115933 -0.310654,-0.243398 -0.477988,-0.335417 -0.183732,-0.10102 -0.313091,-0.103591 -0.50576,-0.0487087 -0.0932205,0.0265591 -0.198827,0.0540709 -0.269343,0.122547l-0.0865157 0.0384528z"/>
  <path class="fil6" d="M2.33434 1.67143c0,0 0.147791,-0.144189 0.461402,-0.122559 0.313614,0.021626 0.313614,0.0973228 0.216283,0.0973228 -0.0973228,0 -0.200736,0.00539764 -0.243992,0.0414409 -0.0432598,0.0360512 -0.0158543,0.0554606 -0.0158543,0.0554606 0,0 0.169728,-0.0392244 0.303102,0.0220551 0.133374,0.0612795 0.122567,0.111752 0.0937244,0.108146 -0.0288386,-0.0036063 -0.15861,-0.0180236 -0.281169,0.0144134 -0.122559,0.0324449 -0.17663,0.090122 -0.17663,0.090122l-0.356866 -0.306402z"/>
  <path class="fil4" d="M2.79333 2.90906c-0.0670433,-0.0249409 -0.180929,0.030311 -0.246335,0.0516575 -0.048252,0.0157717 -0.102776,0.0298937 -0.15261,0.0301614 -0.038,0.00019685 -0.0934528,-0.00391732 -0.129866,-0.0145315 -0.0342992,-0.0100236 -0.0529173,-0.027937 -0.0912165,-0.0288386 -0.0873031,-0.00205512 -0.131319,0.0287717 -0.202795,-0.0465079 -0.064126,-0.0675394 -0.0335984,-0.141669 -0.0134882,-0.222516 0.0312874,-0.125705 0.103295,-0.263146 0.105382,-0.393508 -0.0363858,-0.0057126 -0.0703504,0.0218622 -0.105016,0.0287244 -0.0280512,0.00556299 -0.0577087,0.00550394 -0.0866299,0.0041811 -0.0899173,-0.00412205 -0.109803,-0.0501181 -0.110787,-0.139012 -0.00281496,-0.253732 0.18922,-0.495638 0.439752,-0.530228 0.158945,-0.0219449 0.331969,-0.0123268 0.460161,0.0952087 0.132559,0.111213 0.223118,0.286894 0.320402,0.428083 0.0894803,0.129886 0.204217,0.235071 0.324323,0.337622 0.0994882,0.0849213 0.144492,0.200811 0.223677,0.303311 0.035315,0.0457165 0.108937,0.116217 0.105839,0.177169 -0.169063,0.0118425 -0.335213,-0.0585472 -0.500752,-0.0764764 -0.0900433,-0.00975197 -0.247146,0.036189 -0.340039,-0.0045z"/>
  <path class="fil7" d="M2.0784 2.28604c0,0 -0.0306378,0.124362 -0.0450591,0.200063 -0.0144173,0.0757008 -0.0306378,0.144189 -0.0306378,0.144189 0,0 -0.138783,0.0468622 -0.19285,0.0720945 -0.0540748,0.0252323 -0.105531,0.0517126 -0.105531,0.0517126 0.145157,-0.13715 0.236161,-0.291811 0.35065,-0.453642 0,0 -0.177736,0.228346 -0.224598,0.300445 -0.0468622,0.0720945 -0.12326,0.15015 -0.12326,0.15015 0,0 -0.00540551,-0.111748 0.0126181,-0.248728 0.0180236,-0.13698 0.0594764,-0.232504 0.0594764,-0.232504l0.299193 0.0162205z"/>
  <path class="fil6" d="M4.54282 4.01451c0.0176378,-0.0239528 -0.125035,-0.224846 -0.148953,-0.261949 -0.0770866,-0.119622 -0.162504,-0.235165 -0.245173,-0.35098 -0.114469,-0.16037 -0.237228,-0.319201 -0.371138,-0.463689 -0.115059,-0.124142 -0.240031,-0.244807 -0.383933,-0.336917 -0.113839,-0.0728661 -0.250504,-0.148976 -0.390524,-0.148508 -0.24315,0.000795276 -0.463831,0.26137 -0.445508,0.501213 0.0180945,0.236689 0.190248,0.481118 0.332906,0.660126 0.150425,0.188756 0.374858,0.320512 0.604543,0.375469 0.421756,0.100933 0.931366,0.0894567 1.04778,0.0252362z"/>
  <circle class="fil8" cx="2.22584" cy="2.10131" r="0.0836889"/>
  <circle class="fil9" cx="2.22585" cy="2.10131" r="0.0331786"/>
  <path class="fil10" d="M2.33495 2.08175c-0.0400394,-0.0328268 -0.0953819,-0.0532992 -0.143988,-0.0250551 -0.0411457,0.0239016 -0.0515945,0.0723031 -0.0404134,0.115736 0.00461811,0.0179843 -0.0232047,0.0256457 -0.0278228,0.00766142 -0.0144764,-0.0563228 0.00120866,-0.117413 0.0536732,-0.148299 0.0604961,-0.0356063 0.128831,-0.0115433 0.178945,0.0295669 0.0143622,0.0117874 -0.00615748,0.0320709 -0.0203937,0.0203898z"/>
  <path class="fil11" d="M3.38321 4.17239l0.117138 0 -0.0162402 0.144071c-0.00287795,0.0255669 -0.0210591,0.0467874 -0.0467874,0.0467874l-3.93701e-006 0c-0.0257323,0 -0.0454843,-0.0210866 -0.0467874,-0.0467874l-0.0073189 -0.144071z"/>
  <path class="fil3" d="M3.20361 4.37179c-0.0161063,-0.00443307 -0.0102953,0.00149606 -0.0263543,-0.00309843 -0.058311,0.0557717 -0.0764567,0.148217 -0.0669213,0.224425 0.00345276,0.0275433 -0.0398543,0.0273031 -0.0432598,0 -0.00995669,-0.0795512 -0.00833858,-0.180142 0.0444055,-0.245067 -0.00922835,-0.00247244 -0.00415354,-0.00184646 -0.013437,-0.00411811 -0.0685157,0.0535354 -0.0828386,0.160122 -0.0730157,0.239122 0.00340945,0.0275512 -0.039874,0.027315 -0.043252,0 -0.0538622,-0.432898 0.412858,-0.312618 0.270134,-0.186224 -0.0635472,0.0562598 -0.0497638,0.15815 -0.0484843,0.236685 0.000444882,0.0278543 -0.0428071,0.0278543 -0.0432598,0 -0.00143701,-0.0895394 -0.0188937,-0.195382 0.0434449,-0.261724z"/>
  <path class="fil3" d="M3.42304 4.36239c0.0131654,0.00187402 0.0253661,-0.00728346 0.0272402,-0.0204488 0.00187008,-0.0131654 -0.0072874,-0.0253622 -0.0204488,-0.0272362l-0.208094 -0.0301614c-0.0131654,-0.00187008 -0.0253661,0.0072874 -0.0272362,0.0204528 -0.00187402,0.0131614 0.00728346,0.0253622 0.0204488,0.0272362l0.208091 0.0301575z"/>
 </g>
</svg>
